<svg data-v-423bf9ae="" xmlns="http://www.w3.org/2000/svg" viewBox="0 0 325.2226401275059 60" class="font">
    <defs data-v-423bf9ae="">
        <linearGradient data-v-423bf9ae="" gradientTransform="rotate(25)" id="744880df-9502-4e33-b1a7-cd8cffe52cc1" x1="0%" y1="0%" x2="100%" y2="0%">
            <stop data-v-423bf9ae="" offset="0%" style="stop-color: rgb(40, 139, 88); stop-opacity: 1;"></stop>
            <stop data-v-423bf9ae="" offset="100%" style="stop-color: rgb(21, 34, 241); stop-opacity: 1;"></stop>
        </linearGradient>
    </defs>
    <g data-v-423bf9ae="" id="882e6c1d-57ff-4517-8ba3-2fcba21291f3" fill="url(#744880df-9502-4e33-b1a7-cd8cffe52cc1)" transform="matrix(4.528301886792453,0,0,4.528301886792453,-5.6603807413353024,-2.4905653168570296)">
        <path d="M1.25 0.76L1.25 10.64L3.81 10.64C4.82 10.64 5.52 10.56 6.06 10.36C7.14 9.97 7.69 8.96 7.69 7.83C7.69 6.45 6.93 5.67 5.70 5.45C6.73 5.10 7.34 4.40 7.34 3.22C7.34 1.72 6.54 0.92 5.14 0.81C4.77 0.78 4.27 0.76 3.81 0.76ZM2.37 9.95L2.37 5.84L3.96 5.84C4.80 5.84 5.19 5.89 5.56 6.06C6.20 6.38 6.52 7.14 6.52 7.87C6.52 8.81 6.13 9.44 5.57 9.70C5.21 9.87 4.70 9.95 3.89 9.95ZM2.37 5.15L2.37 1.44L3.72 1.44C4.37 1.44 4.89 1.50 5.21 1.60C5.85 1.81 6.20 2.49 6.20 3.26C6.20 4.00 5.88 4.61 5.42 4.87C5.10 5.05 4.68 5.15 3.89 5.15ZM10.57 3.58L9.52 3.58L9.52 7.76C9.52 8.40 9.56 9.04 9.65 9.39C9.90 10.49 10.65 10.82 11.63 10.82C12.26 10.82 13.26 10.71 14 9.83C14.01 10.09 14.07 10.43 14.11 10.64L15.16 10.64C15.06 9.91 15.02 9.09 15.02 8.26L15.02 3.58L13.99 3.58L13.99 7.92C13.99 8.83 13.97 9.06 13.66 9.39C13.24 9.88 12.57 10.09 12.00 10.09C11.30 10.09 10.85 9.80 10.70 9.24C10.60 8.89 10.57 8.32 10.57 7.46ZM21.94 10.64L22.97 10.64L22.97 6.48C22.97 5.64 22.95 5.25 22.89 4.87C22.74 3.78 21.91 3.40 20.93 3.40C20.29 3.40 19.12 3.68 18.48 4.61C18.48 4.48 18.42 3.82 18.37 3.58L17.33 3.58C17.43 4.24 17.47 5.43 17.47 6.26L17.47 10.64L18.52 10.64L18.52 6.40C18.52 5.59 18.58 5.32 18.83 4.94C19.21 4.40 19.91 4.12 20.54 4.12C21.25 4.12 21.66 4.40 21.81 4.94C21.91 5.31 21.94 5.82 21.94 6.68ZM29.81 10.64L30.84 10.64L30.84 6.48C30.84 5.64 30.81 5.25 30.76 4.87C30.60 3.78 29.78 3.40 28.80 3.40C28.15 3.40 26.99 3.68 26.35 4.61C26.35 4.48 26.29 3.82 26.24 3.58L25.20 3.58C25.30 4.24 25.34 5.43 25.34 6.26L25.34 10.64L26.39 10.64L26.39 6.40C26.39 5.59 26.45 5.32 26.70 4.94C27.08 4.40 27.78 4.12 28.41 4.12C29.12 4.12 29.53 4.40 29.68 4.94C29.78 5.31 29.81 5.82 29.81 6.68ZM38.35 3.58L37.34 3.58C36.15 7.31 35.71 8.88 35.41 9.91C35.03 8.78 34.52 7.36 33.12 3.58L31.95 3.58L34.68 10.64L35.07 10.64L34.86 11.30C34.69 11.86 34.47 12.43 34.20 12.70C33.91 13.01 33.57 13.06 33.26 13.06C33.07 13.06 32.77 13.02 32.61 12.96L32.61 13.72C32.84 13.78 33.08 13.80 33.29 13.80C34.02 13.80 34.62 13.59 35.03 12.98C35.25 12.61 35.41 12.22 35.71 11.33ZM46.89 10.09C44.84 10.09 43.72 8.68 43.72 5.75C43.72 2.67 45.01 1.29 47.07 1.29C48.10 1.29 49.11 1.51 49.78 1.85L49.78 0.97C49.15 0.71 48.29 0.55 47.07 0.55C44.28 0.55 42.53 2.28 42.53 5.85C42.53 9.39 44.32 10.84 46.89 10.84C48.20 10.84 49.31 10.57 50.23 10.09L50.23 5.71L46.59 5.71L46.59 6.41L49.13 6.41L49.13 9.72C48.57 9.95 47.74 10.09 46.89 10.09ZM56.43 10.64L57.46 10.64C57.29 10.11 57.27 9.56 57.27 9.09L57.27 5.80C57.27 4.79 57.08 4.33 56.71 3.95C56.28 3.51 55.58 3.40 54.88 3.40C54.19 3.40 53.28 3.56 52.54 3.91L52.54 4.72C53.41 4.24 54.17 4.14 54.75 4.14C55.27 4.14 55.68 4.28 55.92 4.59C56.15 4.90 56.24 5.39 56.24 5.91L56.24 6.54C55.99 6.52 55.62 6.51 55.36 6.51C52.91 6.51 51.87 7.28 51.87 8.65C51.87 9.90 52.70 10.81 54.12 10.81C55.24 10.81 55.90 10.32 56.27 9.66C56.28 9.93 56.36 10.40 56.43 10.64ZM56.24 7.11L56.24 8.11C56.24 8.57 56.17 9.03 55.90 9.34C55.54 9.79 54.99 10.09 54.33 10.09C53.44 10.09 52.93 9.52 52.93 8.62C52.93 7.78 53.54 7.10 55.55 7.10C55.78 7.10 56.04 7.10 56.24 7.11ZM64.09 10.64L65.13 10.64L65.13 6.48C65.13 5.64 65.10 5.25 65.04 4.87C64.89 3.78 64.06 3.40 63.08 3.40C62.44 3.40 61.28 3.68 60.63 4.61C60.63 4.48 60.58 3.82 60.52 3.58L59.49 3.58C59.58 4.24 59.63 5.43 59.63 6.26L59.63 10.64L60.68 10.64L60.68 6.40C60.68 5.59 60.73 5.32 60.98 4.94C61.36 4.40 62.06 4.12 62.69 4.12C63.41 4.12 63.81 4.40 63.97 4.94C64.06 5.31 64.09 5.82 64.09 6.68ZM73.00 5.60C73.00 4.94 73.01 4.28 73.07 3.58L72.10 3.58C72.06 3.85 72.03 4.09 72.02 4.24C71.58 3.72 70.90 3.43 69.99 3.43C68.43 3.43 66.98 4.37 66.98 7.18C66.98 9.56 67.98 10.67 69.75 10.67C70.71 10.67 71.44 10.37 71.96 9.76L71.96 10.47C71.96 11.49 71.78 12.15 71.43 12.50C71.09 12.84 70.45 13.02 69.80 13.02C69.15 13.02 68.33 12.91 67.61 12.50L67.61 13.37C68.22 13.64 68.94 13.78 69.80 13.78C70.85 13.78 71.89 13.51 72.44 12.81C72.83 12.32 73.00 11.59 73.00 10.46ZM71.97 6.87C71.97 8.99 71.86 9.17 71.36 9.59C71.11 9.80 70.60 10.00 70.07 10.00C68.88 10.00 68.07 9.10 68.07 7.20C68.07 5.07 68.99 4.10 70.10 4.10C70.69 4.10 71.25 4.26 71.60 4.72C71.88 5.07 71.97 5.33 71.97 6.87Z"></path>
    </g>
</svg>